<?xml version="1.0" encoding="utf-8"?>
<!-- Generator: Adobe Illustrator 17.0.0, SVG Export Plug-In . SVG Version: 6.00 Build 0)  -->
<!DOCTYPE svg PUBLIC "-//W3C//DTD SVG 1.1//EN" "http://www.w3.org/Graphics/SVG/1.1/DTD/svg11.dtd">
<svg version="1.1" id="Слой_1" xmlns="http://www.w3.org/2000/svg" xmlns:xlink="http://www.w3.org/1999/xlink" x="0px" y="0px"
	 width="38px" height="38px" viewBox="0 0 38 38" enable-background="new 0 0 38 38" xml:space="preserve">
<path opacity=".35" fill="#919090" d="M34,0H4C1.792,0,0,1.791,0,4v30c0,2.194,1.77,3.973,3.958,3.996c0-2.125,0-4.501,0-5.912
	c0-1.792,7.53-5.709,7.53-5.709L11.979,26h1.171c1.823,2.662,5.693,4.667,5.876,4.667S22.8,28.609,24.625,26h1.327l0.491,0.375
	c0,0,7.557,4.084,7.557,5.709c0,1.331,0,3.748,0,5.916c2.208,0,4-1.791,4-4V4C38,1.791,36.208,0,34,0z M27.208,21.367l-0.784,0.008
	c-0.027,0-0.051-0.015-0.078-0.018c-1.172,2.689-5.245,6.413-7.315,6.413c-2.012,0-6.952-3.964-8.085-6.378l-0.293-0.002
	c-0.575-0.005-1.036-0.541-1.028-1.197l0.014-1.438c0.006-0.655,0.245-0.979,0.82-0.974l0.154,0.001
	c0.023-0.859,0.065-1.645,0.06-2.076C10.614,10.477,15.667,7,19.03,7c3.429,0,8.476,3.2,8.341,8.672
	c-0.009,0.353,0.073,1.224,0.049,2.083c0.566-0.001,0.803,0.319,0.807,0.97l0.013,1.441C28.244,20.822,27.781,21.36,27.208,21.367z"
	/>
</svg>
