<?xml version="1.0" encoding="UTF-8" standalone="no"?>
<svg width="188px" height="188px" viewBox="0 0 188 188" version="1.1" xmlns="http://www.w3.org/2000/svg" xmlns:xlink="http://www.w3.org/1999/xlink">
    <!-- Generator: Sketch 3.7.1 (28215) - http://www.bohemiancoding.com/sketch -->
    <title>Group 3</title>
    <desc>Created with Sketch.</desc>
    <defs></defs>
    <g id="Page-1" stroke="none" stroke-width="1" fill="none" fill-rule="evenodd">
        <g id="Promo-done-hotkey" transform="translate(-843.000000, -255.000000)">
            <g id="Group-3" transform="translate(843.000000, 255.000000)">
                <circle id="Mask" fill="#FFE67B" transform="translate(94.000000, 94.000000) scale(-1, 1) translate(-94.000000, -94.000000) " cx="94" cy="94" r="94"></circle>
                <path d="M15.0246201,145 C5.5187761,130.310118 0,112.799549 0,94 C0,42.0852335 42.0852335,0 94,0 C113.660354,0 131.910985,6.03574112 147,16.3553296 L147,124.992781 C147,136.045566 138.044765,145 126.997922,145 L15.0246201,145 Z" id="Combined-Shape" fill="#C8C3B4"></path>
                <path d="M72,2.5885547 C79.0571682,0.896266969 86.4239169,0 94,0 C107.523764,0 120.380497,2.85590085 132,7.99750342 L132,53.995277 C132,55.6573028 130.654653,57 128.995083,57 L90.0049167,57 C88.3467606,57 87,55.6547397 87,53.995277 L87,24.0009279 C87,22.3435612 85.6473283,21 84.004076,21 L75.0049167,21 C73.3467606,21 72,19.6547397 72,17.995277 L72,2.5885547 Z" id="Combined-Shape" fill="#F3F1ED"></path>
                <path d="M36.48898,19.640573 C45.2297694,12.8703989 55.1966547,7.60725318 66,4.2407719 L66,17.9999809 C66,19.6526814 64.6568457,21 62.9999809,21 L39.0000191,21 C37.9513083,21 37.0255583,20.4591846 36.48898,19.640573 Z" id="Combined-Shape" fill="#F1EAD7"></path>
                <path d="M15,43.0380669 C18.762152,37.21807 23.1499356,31.8403275 28.0681901,27 L41.9999809,27 C43.6526814,27 45,28.3431543 45,30.0000191 L45,53.9999809 C45,55.6526814 43.6568457,57 41.9999809,57 L18.0000191,57 C16.3473186,57 15,55.6568457 15,53.9999809 L15,43.0380669 Z" id="Combined-Shape" fill="#F1EAD7"></path>
                <path d="M0.00520928532,93 C0.11467541,82.4975184 1.9465101,72.4078379 5.23167221,62.9999996 L18.9999809,63 C20.6526814,63 22,64.3431543 22,66.0000191 L22,89.9999809 C22,91.6526814 20.6568457,93 18.9999809,93 L0.00520928532,93 Z" id="Combined-Shape" fill="#F1EAD7"></path>
                <path d="M6.73204761,129 C3.05262929,119.834308 0.775339418,109.954682 0.165615654,99.6265611 C0.672225353,99.2339906 1.30772277,99 1.99765987,99 L34.0023401,99 C35.6475599,99 37,100.343154 37,102.000019 L37,125.999981 C37,127.652681 35.657902,129 34.0023401,129 L6.73204761,129 Z" id="Combined-Shape" fill="#F1EAD7"></path>
                <rect id="Rectangle-377-Copy-5" fill="#F1EAD7" transform="translate(62.000000, 114.000000) scale(-1, 1) translate(-62.000000, -114.000000) " x="43" y="99" width="38" height="30" rx="3"></rect>
                <rect id="Rectangle-377-Copy-4" fill="#F3F1ED" transform="translate(109.500000, 114.000000) scale(-1, 1) translate(-109.500000, -114.000000) " x="87" y="99" width="45" height="30" rx="3"></rect>
                <rect id="Rectangle-377-Copy-10" fill="#F1EAD7" transform="translate(66.000000, 42.000000) scale(-1, 1) translate(-66.000000, -42.000000) " x="51" y="27" width="30" height="30" rx="3"></rect>
                <rect id="Rectangle-377-Copy-3" fill="#F1EAD7" transform="translate(80.000000, 78.000000) scale(-1, 1) translate(-80.000000, -78.000000) " x="28" y="63" width="104" height="30" rx="3"></rect>
                <path d="M106.946,109.745 C106.699,109.511 106.335,109.225 105.828,109.017 C105.113,108.718 104.398,108.692 104.151,108.692 C102.812,108.692 101.902,109.212 101.291,109.836 C100.693,110.434 99.952,111.578 99.952,113.489 C99.952,115.4 100.693,116.57 101.33,117.181 C102.136,117.974 103.059,118.208 104.151,118.208 C104.996,118.208 106.075,118.026 107.063,117.155 L106.361,116.258 C105.49,116.986 104.762,117.129 104.151,117.129 C103.397,117.129 102.786,116.895 102.279,116.388 C101.681,115.79 101.278,114.789 101.278,113.45 C101.278,112.137 101.694,111.084 102.305,110.486 C102.643,110.161 103.228,109.771 104.125,109.771 C104.645,109.771 105.035,109.901 105.425,110.083 C105.763,110.239 106.036,110.421 106.257,110.603 L106.946,109.745 Z M108.064,111.929 L107.154,111.929 L107.154,112.865 L108.064,112.865 L108.064,116.18 C108.064,116.687 108.064,117.337 108.506,117.766 C108.844,118.104 109.325,118.143 109.715,118.143 C109.949,118.143 110.261,118.13 110.56,118.052 C110.755,118 110.937,117.935 111.106,117.831 L110.716,116.973 C110.625,117.012 110.495,117.077 110.404,117.103 C110.261,117.142 110.027,117.168 109.91,117.168 C109.65,117.168 109.442,117.103 109.338,116.986 C109.143,116.791 109.143,116.388 109.143,116.037 L109.143,112.865 L110.417,112.865 L110.417,111.929 L109.143,111.929 L109.143,110.33 L108.064,110.33 L108.064,111.929 Z M113.095,111.929 L112.016,111.929 L112.016,118 L113.095,118 L113.095,113.905 C113.303,113.632 113.524,113.411 113.758,113.229 C114.005,113.034 114.317,112.839 114.759,112.839 C114.98,112.839 115.201,112.904 115.396,112.995 L115.734,111.981 C115.487,111.864 115.227,111.786 114.889,111.786 C114.46,111.786 114.148,111.89 113.823,112.098 C113.576,112.254 113.303,112.488 113.095,112.748 L113.095,111.929 Z M116.67,118 L117.749,118 L117.749,108.9 L116.67,108.9 L116.67,118 Z" id="Ctrl" fill="#605D56"></path>
                <polygon id="Path-1" fill="#605D56" points="110.578124 28.3657141 111.078124 27.8657141 104.248047 27.865715 103.748047 27.8657151 103.748047 28.8657151 104.248047 28.865715 111.078124 28.8657141 111.578124 28.8657141 111.578124 28.3657141 111.578124 1.7043457 110.578124 1.42651367"></polygon>
                <polygon id="Path-2" fill="#605D56" transform="translate(101.500000, 28.500000) scale(-1, 1) translate(-101.500000, -28.500000) " points="98.8037109 26 104.196289 28.5 98.8037109 31"></polygon>
            </g>
        </g>
    </g>
</svg>